<?xml version="1.0" encoding="UTF-8" standalone="no"?>
<!-- Created with Inkscape (http://www.inkscape.org/) -->

<svg
   xmlns:dc="http://purl.org/dc/elements/1.1/"
   xmlns:cc="http://creativecommons.org/ns#"
   xmlns:rdf="http://www.w3.org/1999/02/22-rdf-syntax-ns#"
   xmlns:svg="http://www.w3.org/2000/svg"
   xmlns="http://www.w3.org/2000/svg"
   xmlns:sodipodi="http://sodipodi.sourceforge.net/DTD/sodipodi-0.dtd"
   xmlns:inkscape="http://www.inkscape.org/namespaces/inkscape"
   width="400"
   height="400"
   viewBox="0 0 105.83333 105.83334"
   version="1.1"
   id="svg5392"
   inkscape:version="0.92.5 (2060ec1f9f, 2020-04-08)"
   sodipodi:docname="waters-above-square-8.svg"
   inkscape:export-filename="/home/dk/Documents/Music/freedom/band/waters-above-square-7.png"
   inkscape:export-xdpi="96"
   inkscape:export-ydpi="96">
  <defs
     id="defs5386" />
  <sodipodi:namedview
     id="base"
     pagecolor="#ffffff"
     bordercolor="#666666"
     borderopacity="1.0"
     inkscape:pageopacity="0.0"
     inkscape:pageshadow="2"
     inkscape:zoom="1.4"
     inkscape:cx="70.248937"
     inkscape:cy="226.34224"
     inkscape:document-units="mm"
     inkscape:current-layer="layer1"
     showgrid="false"
     units="px"
     inkscape:window-width="1598"
     inkscape:window-height="898"
     inkscape:window-x="0"
     inkscape:window-y="0"
     inkscape:window-maximized="0"
     showguides="false" />
  <metadata
     id="metadata5389">
    <rdf:RDF>
      <cc:Work
         rdf:about="">
        <dc:format>image/svg+xml</dc:format>
        <dc:type
           rdf:resource="http://purl.org/dc/dcmitype/StillImage" />
        <dc:title></dc:title>
      </cc:Work>
    </rdf:RDF>
  </metadata>
  <g
     inkscape:label="Layer 1"
     inkscape:groupmode="layer"
     id="layer1"
     transform="translate(0,-191.16665)">
    <path
       style="fill:none;stroke:#aaccff;stroke-width:3.175;stroke-linecap:butt;stroke-linejoin:miter;stroke-opacity:1;stroke-miterlimit:4;stroke-dasharray:none"
       d="m 15.042813,206.44021 5.364912,7.21734 c 10.296148,-7.73145 20.840571,-7.29373 28.527973,-5.29271 12.258602,3.19089 28.40901,2.59408 32.399316,-8.86863 l -8.583687,-2.90426 c -4.567427,6.08343 -16.345178,4.20222 -22.971144,2.71277 -10.271055,-2.30882 -21.801181,-2.37956 -34.73737,7.13549 z"
       id="path4583"
       inkscape:connector-curvature="0"
       sodipodi:nodetypes="ccsccsc" />
    <path
       style="fill:none;stroke:#aaccff;stroke-width:3.175;stroke-linecap:butt;stroke-linejoin:miter;stroke-opacity:1;stroke-miterlimit:4;stroke-dasharray:none"
       d="m 17.731863,223.38081 5.364912,7.21734 c 10.296148,-7.73145 20.840571,-7.29373 28.527973,-5.29271 12.258601,3.19089 28.409011,2.59408 32.399317,-8.86863 l -8.583689,-2.90426 c -4.567426,6.08343 -16.345178,4.20222 -22.971144,2.71277 -10.271054,-2.30882 -21.80118,-2.37956 -34.737369,7.13549 z"
       id="path4583-5"
       inkscape:connector-curvature="0"
       sodipodi:nodetypes="ccsccsc" />
    <path
       style="fill:none;stroke:#aaccff;stroke-width:3.175;stroke-linecap:butt;stroke-linejoin:miter;stroke-opacity:1;stroke-miterlimit:4;stroke-dasharray:none"
       d="m 20.894247,240.25501 5.364912,7.21734 c 10.296149,-7.73145 20.840572,-7.29373 28.527974,-5.29271 12.258601,3.19089 28.409011,2.59408 32.399317,-8.86863 l -8.583689,-2.90426 c -4.567426,6.08343 -16.345178,4.20222 -22.971144,2.71277 -10.271054,-2.30882 -21.80118,-2.37956 -34.73737,7.13549 z"
       id="path4583-5-3"
       inkscape:connector-curvature="0"
       sodipodi:nodetypes="ccsccsc" />
    <path
       style="fill:none;stroke:#000000;stroke-width:3.54547262;stroke-linecap:butt;stroke-linejoin:miter;stroke-miterlimit:4;stroke-dasharray:none;stroke-opacity:1"
       d="m 95.060747,278.21203 c -4.403743,-20.12539 -55.92131,-51.2426 -76.684212,5.32952 18.756715,12.68731 58.72985,7.12751 76.684212,-5.32952 z"
       id="path3947"
       inkscape:connector-curvature="0"
       sodipodi:nodetypes="ccc" />
    <g
       id="g5888"
       transform="rotate(-2.5861824,50.969354,281.86574)" />
    <path
       style="fill:none;fill-opacity:1;stroke:#0000ff;stroke-width:9.25353718;stroke-linecap:butt;stroke-linejoin:miter;stroke-miterlimit:4;stroke-dasharray:none;stroke-opacity:1"
       d="m 23.498252,243.96343 c 12.147884,-8.9621 23.140173,-8.42837 31.756626,-6.29475 16.284239,4.0323 25.712547,-0.25327 27.652308,-5.91516"
       id="path20"
       inkscape:connector-curvature="0"
       sodipodi:nodetypes="csc" />
    <path
       style="fill:none;stroke:#0000ff;stroke-width:9.253479;stroke-linecap:butt;stroke-linejoin:miter;stroke-miterlimit:4;stroke-dasharray:none;stroke-opacity:1"
       d="m 20.318219,227.05417 c 12.147884,-8.9621 23.140173,-8.42837 31.756626,-6.29475 16.284239,4.0323 25.712551,-0.25327 27.652311,-5.91516"
       id="path20-3"
       inkscape:connector-curvature="0"
       sodipodi:nodetypes="csc" />
    <path
       style="fill:none;stroke:#0000ff;stroke-width:9.25353718;stroke-linecap:butt;stroke-linejoin:miter;stroke-miterlimit:4;stroke-dasharray:none;stroke-opacity:1"
       d="m 17.672385,210.14491 c 12.147885,-8.9621 23.140174,-8.42837 31.756627,-6.29475 16.284239,4.0323 25.712547,-0.25327 27.652308,-5.91516"
       id="path20-6"
       inkscape:connector-curvature="0"
       sodipodi:nodetypes="csc" />
  </g>
</svg>
