<?xml version="1.0" encoding="UTF-8" standalone="no"?>
<!-- Created with Inkscape (http://www.inkscape.org/) -->

<svg
   xmlns:dc="http://purl.org/dc/elements/1.1/"
   xmlns:cc="http://creativecommons.org/ns#"
   xmlns:rdf="http://www.w3.org/1999/02/22-rdf-syntax-ns#"
   xmlns:svg="http://www.w3.org/2000/svg"
   xmlns="http://www.w3.org/2000/svg"
   xmlns:sodipodi="http://sodipodi.sourceforge.net/DTD/sodipodi-0.dtd"
   xmlns:inkscape="http://www.inkscape.org/namespaces/inkscape"
   width="400"
   height="400"
   viewBox="0 0 105.83333 105.83334"
   version="1.1"
   id="svg5392"
   inkscape:version="0.92.5 (2060ec1f9f, 2020-04-08)"
   sodipodi:docname="waters-above-square-5.svg"
   inkscape:export-filename="/home/dk/Documents/Music/freedom/band/waters-above-square-5.png"
   inkscape:export-xdpi="96"
   inkscape:export-ydpi="96">
  <defs
     id="defs5386" />
  <sodipodi:namedview
     id="base"
     pagecolor="#ffffff"
     bordercolor="#666666"
     borderopacity="1.0"
     inkscape:pageopacity="0.0"
     inkscape:pageshadow="2"
     inkscape:zoom="0.7"
     inkscape:cx="14.700101"
     inkscape:cy="97.710871"
     inkscape:document-units="mm"
     inkscape:current-layer="layer1"
     showgrid="false"
     units="px"
     inkscape:window-width="798"
     inkscape:window-height="898"
     inkscape:window-x="0"
     inkscape:window-y="0"
     inkscape:window-maximized="0"
     showguides="false" />
  <metadata
     id="metadata5389">
    <rdf:RDF>
      <cc:Work
         rdf:about="">
        <dc:format>image/svg+xml</dc:format>
        <dc:type
           rdf:resource="http://purl.org/dc/dcmitype/StillImage" />
        <dc:title />
      </cc:Work>
    </rdf:RDF>
  </metadata>
  <g
     inkscape:label="Layer 1"
     inkscape:groupmode="layer"
     id="layer1"
     transform="translate(0,-191.16665)">
    <path
       style="fill:none;stroke:#000000;stroke-width:3.54547262;stroke-linecap:butt;stroke-linejoin:miter;stroke-miterlimit:4;stroke-dasharray:none;stroke-opacity:1"
       d="m 95.060747,278.21203 c -4.403743,-20.12539 -55.92131,-51.2426 -76.684212,5.32952 18.756715,12.68731 58.72985,7.12751 76.684212,-5.32952 z"
       id="path3947"
       inkscape:connector-curvature="0"
       sodipodi:nodetypes="ccc" />
    <g
       id="g5888"
       transform="rotate(-2.5861824,50.969354,281.86574)" />
    <path
       sodipodi:nodetypes="sssss"
       inkscape:connector-curvature="0"
       id="rect4776"
       d="m 90.407579,236.32729 c 5.396376,1.22062 -1.471682,6.26039 -8.192545,8.72493 -8.777583,3.21874 -26.052199,-4.82841 -36.476893,-3.76694 -13.181872,1.34222 -23.229616,27.40619 -29.770516,17.41714 -17.8744235,-27.2972 47.208253,-28.53477 74.439954,-22.37513 z"
       style="fill:#0000ff;stroke:#80b3ff;stroke-width:2.85441494;stroke-miterlimit:4;stroke-dasharray:none" />
    <path
       sodipodi:nodetypes="ssss"
       inkscape:connector-curvature="0"
       id="rect4779"
       d="m 86.328817,213.49379 c -2.517898,19.8278 -39.002475,4.98732 -70.542856,20.60197 -10.6148047,5.25505 7.536227,-17.64737 21.144916,-15.85305 35.224546,4.6444 51.826045,-23.86962 49.39794,-4.74892 z"
       style="fill:#0000ff;stroke:#80b3ff;stroke-width:2.75962782;stroke-miterlimit:4;stroke-dasharray:none" />
    <path
       sodipodi:nodetypes="ssssss"
       inkscape:connector-curvature="0"
       id="rect4782"
       d="m 76.763756,195.93493 c -1.540095,5.44298 -19.883993,17.0815 -26.494948,14.5024 -12.285375,-4.79284 -27.050097,7.37647 -29.876286,4.27697 -4.037312,-4.42772 -2.553993,-23.63014 18.917795,-13.05156 3.647007,1.79678 8.114935,-2.4737 17.14307,-5.17725 9.1542,-2.74127 21.256755,-3.89527 20.310369,-0.55056 z"
       style="fill:#0000ff;stroke:#80b3ff;stroke-width:2.56351304;stroke-miterlimit:4;stroke-dasharray:none" />
  </g>
</svg>
